<mxfile host="app.diagrams.net" modified="2024-01-05T20:08:02.165Z" agent="Mozilla/5.0 (Windows NT 10.0; Win64; x64) AppleWebKit/537.36 (KHTML, like Gecko) Chrome/120.0.0.0 Safari/537.36" etag="m6e81BwRh2eGSlZ2t0dq" version="22.1.16" type="device">
  <diagram name="Page-1" id="2YBvvXClWsGukQMizWep">
    <mxGraphModel dx="1322" dy="744" grid="1" gridSize="10" guides="1" tooltips="1" connect="1" arrows="1" fold="1" page="1" pageScale="1" pageWidth="850" pageHeight="1100" math="0" shadow="0">
      <root>
        <mxCell id="0" />
        <mxCell id="1" parent="0" />
        <mxCell id="xujpHnGjbQcPWJrS-wD8-1" value="Web App" style="shape=umlLifeline;perimeter=lifelinePerimeter;whiteSpace=wrap;html=1;container=0;dropTarget=0;collapsible=0;recursiveResize=0;outlineConnect=0;portConstraint=eastwest;newEdgeStyle={&quot;edgeStyle&quot;:&quot;elbowEdgeStyle&quot;,&quot;elbow&quot;:&quot;vertical&quot;,&quot;curved&quot;:0,&quot;rounded&quot;:0};" parent="1" vertex="1">
          <mxGeometry x="80" y="40" width="100" height="600" as="geometry" />
        </mxCell>
        <mxCell id="xujpHnGjbQcPWJrS-wD8-2" value="" style="html=1;points=[];perimeter=orthogonalPerimeter;outlineConnect=0;targetShapes=umlLifeline;portConstraint=eastwest;newEdgeStyle={&quot;edgeStyle&quot;:&quot;elbowEdgeStyle&quot;,&quot;elbow&quot;:&quot;vertical&quot;,&quot;curved&quot;:0,&quot;rounded&quot;:0};" parent="xujpHnGjbQcPWJrS-wD8-1" vertex="1">
          <mxGeometry x="45" y="70" width="10" height="30" as="geometry" />
        </mxCell>
        <mxCell id="xujpHnGjbQcPWJrS-wD8-3" value="" style="html=1;points=[];perimeter=orthogonalPerimeter;outlineConnect=0;targetShapes=umlLifeline;portConstraint=eastwest;newEdgeStyle={&quot;edgeStyle&quot;:&quot;elbowEdgeStyle&quot;,&quot;elbow&quot;:&quot;vertical&quot;,&quot;curved&quot;:0,&quot;rounded&quot;:0};" parent="xujpHnGjbQcPWJrS-wD8-1" vertex="1">
          <mxGeometry x="45" y="130" width="10" height="310" as="geometry" />
        </mxCell>
        <mxCell id="xujpHnGjbQcPWJrS-wD8-4" value="&lt;font style=&quot;font-size: 9px;&quot;&gt;Educator&lt;/font&gt;" style="shape=umlActor;verticalLabelPosition=bottom;verticalAlign=top;html=1;outlineConnect=0;" parent="1" vertex="1">
          <mxGeometry x="-100" y="40" width="20" height="40" as="geometry" />
        </mxCell>
        <mxCell id="xujpHnGjbQcPWJrS-wD8-5" value="" style="endArrow=none;dashed=1;html=1;rounded=0;" parent="1" source="xujpHnGjbQcPWJrS-wD8-6" edge="1">
          <mxGeometry width="50" height="50" relative="1" as="geometry">
            <mxPoint x="-90" y="350" as="sourcePoint" />
            <mxPoint x="-90" y="100" as="targetPoint" />
          </mxGeometry>
        </mxCell>
        <mxCell id="xujpHnGjbQcPWJrS-wD8-6" value="" style="html=1;points=[];perimeter=orthogonalPerimeter;outlineConnect=0;targetShapes=umlLifeline;portConstraint=eastwest;newEdgeStyle={&quot;edgeStyle&quot;:&quot;elbowEdgeStyle&quot;,&quot;elbow&quot;:&quot;vertical&quot;,&quot;curved&quot;:0,&quot;rounded&quot;:0};" parent="1" vertex="1">
          <mxGeometry x="-95" y="110" width="10" height="520" as="geometry" />
        </mxCell>
        <mxCell id="xujpHnGjbQcPWJrS-wD8-7" value="&lt;font style=&quot;font-size: 9px;&quot;&gt;1 : click(educatorRegistrationButton)&lt;/font&gt;" style="html=1;verticalAlign=bottom;endArrow=block;edgeStyle=elbowEdgeStyle;elbow=vertical;curved=0;rounded=0;" parent="1" source="xujpHnGjbQcPWJrS-wD8-6" target="xujpHnGjbQcPWJrS-wD8-2" edge="1">
          <mxGeometry relative="1" as="geometry">
            <mxPoint x="-50" y="110" as="sourcePoint" />
            <Array as="points">
              <mxPoint x="30" y="110" />
            </Array>
            <mxPoint x="115" y="110" as="targetPoint" />
          </mxGeometry>
        </mxCell>
        <mxCell id="xujpHnGjbQcPWJrS-wD8-8" value="&lt;font style=&quot;font-size: 9px;&quot;&gt;2 : showPage(signInPage)&lt;/font&gt;" style="html=1;verticalAlign=bottom;endArrow=openThin;dashed=1;endSize=8;edgeStyle=elbowEdgeStyle;elbow=vertical;curved=0;rounded=0;endFill=0;" parent="1" source="xujpHnGjbQcPWJrS-wD8-2" target="xujpHnGjbQcPWJrS-wD8-6" edge="1">
          <mxGeometry relative="1" as="geometry">
            <mxPoint x="-50" y="140" as="targetPoint" />
            <Array as="points">
              <mxPoint x="5" y="140" />
            </Array>
            <mxPoint x="80" y="140" as="sourcePoint" />
          </mxGeometry>
        </mxCell>
        <mxCell id="xujpHnGjbQcPWJrS-wD8-9" value="&lt;font style=&quot;font-size: 9px;&quot;&gt;3 : insertCredentials(credentials)&lt;/font&gt;" style="html=1;verticalAlign=bottom;endArrow=block;edgeStyle=elbowEdgeStyle;elbow=vertical;curved=0;rounded=0;" parent="1" source="xujpHnGjbQcPWJrS-wD8-6" target="xujpHnGjbQcPWJrS-wD8-3" edge="1">
          <mxGeometry relative="1" as="geometry">
            <mxPoint x="-80" y="190" as="sourcePoint" />
            <Array as="points">
              <mxPoint x="30" y="170" />
            </Array>
            <mxPoint x="90" y="200" as="targetPoint" />
            <mxPoint as="offset" />
          </mxGeometry>
        </mxCell>
        <mxCell id="xujpHnGjbQcPWJrS-wD8-10" value="&lt;font style=&quot;font-size: 9px;&quot;&gt;4 : registerUser(userData)&lt;/font&gt;" style="html=1;verticalAlign=bottom;endArrow=block;edgeStyle=elbowEdgeStyle;elbow=vertical;curved=0;rounded=0;" parent="1" source="xujpHnGjbQcPWJrS-wD8-3" target="xujpHnGjbQcPWJrS-wD8-14" edge="1">
          <mxGeometry relative="1" as="geometry">
            <mxPoint x="135" y="180" as="sourcePoint" />
            <Array as="points">
              <mxPoint x="250" y="180" />
            </Array>
            <mxPoint x="250" y="180" as="targetPoint" />
            <mxPoint as="offset" />
          </mxGeometry>
        </mxCell>
        <mxCell id="xujpHnGjbQcPWJrS-wD8-11" value="DBMS" style="shape=umlLifeline;perimeter=lifelinePerimeter;whiteSpace=wrap;html=1;container=1;dropTarget=0;collapsible=0;recursiveResize=0;outlineConnect=0;portConstraint=eastwest;newEdgeStyle={&quot;curved&quot;:0,&quot;rounded&quot;:0};" parent="1" vertex="1">
          <mxGeometry x="425" y="40" width="100" height="600" as="geometry" />
        </mxCell>
        <mxCell id="xujpHnGjbQcPWJrS-wD8-12" value="" style="html=1;points=[];perimeter=orthogonalPerimeter;outlineConnect=0;targetShapes=umlLifeline;portConstraint=eastwest;newEdgeStyle={&quot;edgeStyle&quot;:&quot;elbowEdgeStyle&quot;,&quot;elbow&quot;:&quot;vertical&quot;,&quot;curved&quot;:0,&quot;rounded&quot;:0};" parent="xujpHnGjbQcPWJrS-wD8-11" vertex="1">
          <mxGeometry x="44" y="220" width="10" height="30" as="geometry" />
        </mxCell>
        <mxCell id="xujpHnGjbQcPWJrS-wD8-13" value="Account Manager" style="shape=umlLifeline;perimeter=lifelinePerimeter;whiteSpace=wrap;html=1;container=1;dropTarget=0;collapsible=0;recursiveResize=0;outlineConnect=0;portConstraint=eastwest;newEdgeStyle={&quot;curved&quot;:0,&quot;rounded&quot;:0};" parent="1" vertex="1">
          <mxGeometry x="240" y="40" width="100" height="600" as="geometry" />
        </mxCell>
        <mxCell id="xujpHnGjbQcPWJrS-wD8-14" value="" style="html=1;points=[];perimeter=orthogonalPerimeter;outlineConnect=0;targetShapes=umlLifeline;portConstraint=eastwest;newEdgeStyle={&quot;edgeStyle&quot;:&quot;elbowEdgeStyle&quot;,&quot;elbow&quot;:&quot;vertical&quot;,&quot;curved&quot;:0,&quot;rounded&quot;:0};" parent="xujpHnGjbQcPWJrS-wD8-13" vertex="1">
          <mxGeometry x="45" y="140" width="10" height="280" as="geometry" />
        </mxCell>
        <mxCell id="xujpHnGjbQcPWJrS-wD8-15" value="" style="html=1;points=[[0,0,0,0,5],[0,1,0,0,-5],[1,0,0,0,5],[1,1,0,0,-5]];perimeter=orthogonalPerimeter;outlineConnect=0;targetShapes=umlLifeline;portConstraint=eastwest;newEdgeStyle={&quot;curved&quot;:0,&quot;rounded&quot;:0};" parent="xujpHnGjbQcPWJrS-wD8-13" vertex="1">
          <mxGeometry x="51" y="165" width="10" height="30" as="geometry" />
        </mxCell>
        <mxCell id="xujpHnGjbQcPWJrS-wD8-16" value="&lt;font style=&quot;font-size: 9px;&quot;&gt;5 : checkValidityCred(userData)&lt;/font&gt;" style="html=1;align=left;spacingLeft=2;endArrow=block;rounded=0;edgeStyle=orthogonalEdgeStyle;curved=0;rounded=0;" parent="xujpHnGjbQcPWJrS-wD8-13" target="xujpHnGjbQcPWJrS-wD8-15" edge="1">
          <mxGeometry relative="1" as="geometry">
            <mxPoint x="56" y="150" as="sourcePoint" />
            <Array as="points">
              <mxPoint x="81" y="150" />
              <mxPoint x="81" y="165" />
            </Array>
          </mxGeometry>
        </mxCell>
        <mxCell id="xujpHnGjbQcPWJrS-wD8-17" value="" style="html=1;points=[];perimeter=orthogonalPerimeter;outlineConnect=0;targetShapes=umlLifeline;portConstraint=eastwest;newEdgeStyle={&quot;edgeStyle&quot;:&quot;elbowEdgeStyle&quot;,&quot;elbow&quot;:&quot;vertical&quot;,&quot;curved&quot;:0,&quot;rounded&quot;:0};" parent="xujpHnGjbQcPWJrS-wD8-13" vertex="1">
          <mxGeometry x="45" y="460" width="10" height="30" as="geometry" />
        </mxCell>
        <mxCell id="xujpHnGjbQcPWJrS-wD8-18" value="&lt;font style=&quot;font-size: 9px;&quot;&gt;15 : outcomeMessage&lt;/font&gt;" style="html=1;verticalAlign=bottom;endArrow=openThin;dashed=1;endSize=8;edgeStyle=elbowEdgeStyle;elbow=horizontal;curved=0;rounded=0;endFill=0;" parent="xujpHnGjbQcPWJrS-wD8-13" source="xujpHnGjbQcPWJrS-wD8-17" target="xujpHnGjbQcPWJrS-wD8-19" edge="1">
          <mxGeometry relative="1" as="geometry">
            <mxPoint x="-95" y="510" as="targetPoint" />
            <Array as="points">
              <mxPoint x="-100" y="490" />
            </Array>
            <mxPoint x="55" y="510" as="sourcePoint" />
          </mxGeometry>
        </mxCell>
        <mxCell id="xujpHnGjbQcPWJrS-wD8-19" value="" style="html=1;points=[];perimeter=orthogonalPerimeter;outlineConnect=0;targetShapes=umlLifeline;portConstraint=eastwest;newEdgeStyle={&quot;edgeStyle&quot;:&quot;elbowEdgeStyle&quot;,&quot;elbow&quot;:&quot;vertical&quot;,&quot;curved&quot;:0,&quot;rounded&quot;:0};" parent="xujpHnGjbQcPWJrS-wD8-13" vertex="1">
          <mxGeometry x="-115" y="460" width="10" height="50" as="geometry" />
        </mxCell>
        <mxCell id="xujpHnGjbQcPWJrS-wD8-20" value="" style="html=1;points=[];perimeter=orthogonalPerimeter;outlineConnect=0;targetShapes=umlLifeline;portConstraint=eastwest;newEdgeStyle={&quot;edgeStyle&quot;:&quot;elbowEdgeStyle&quot;,&quot;elbow&quot;:&quot;vertical&quot;,&quot;curved&quot;:0,&quot;rounded&quot;:0};" parent="xujpHnGjbQcPWJrS-wD8-13" vertex="1">
          <mxGeometry x="45" y="530" width="10" height="30" as="geometry" />
        </mxCell>
        <mxCell id="xujpHnGjbQcPWJrS-wD8-21" value="" style="html=1;points=[];perimeter=orthogonalPerimeter;outlineConnect=0;targetShapes=umlLifeline;portConstraint=eastwest;newEdgeStyle={&quot;edgeStyle&quot;:&quot;elbowEdgeStyle&quot;,&quot;elbow&quot;:&quot;vertical&quot;,&quot;curved&quot;:0,&quot;rounded&quot;:0};" parent="xujpHnGjbQcPWJrS-wD8-13" vertex="1">
          <mxGeometry x="-115" y="530" width="10" height="50" as="geometry" />
        </mxCell>
        <mxCell id="xujpHnGjbQcPWJrS-wD8-22" value="&lt;font style=&quot;font-size: 9px;&quot;&gt;17 : outcomeMessage&lt;/font&gt;" style="html=1;verticalAlign=bottom;endArrow=openThin;dashed=1;endSize=8;edgeStyle=elbowEdgeStyle;elbow=horizontal;curved=0;rounded=0;endFill=0;" parent="xujpHnGjbQcPWJrS-wD8-13" source="xujpHnGjbQcPWJrS-wD8-20" target="xujpHnGjbQcPWJrS-wD8-21" edge="1">
          <mxGeometry relative="1" as="geometry">
            <mxPoint x="-125" y="578.1800000000001" as="targetPoint" />
            <Array as="points">
              <mxPoint x="40" y="560" />
            </Array>
            <mxPoint x="25" y="578.1800000000001" as="sourcePoint" />
          </mxGeometry>
        </mxCell>
        <mxCell id="xujpHnGjbQcPWJrS-wD8-23" value="Notification Manager" style="shape=umlLifeline;perimeter=lifelinePerimeter;whiteSpace=wrap;html=1;container=1;dropTarget=0;collapsible=0;recursiveResize=0;outlineConnect=0;portConstraint=eastwest;newEdgeStyle={&quot;curved&quot;:0,&quot;rounded&quot;:0};" parent="1" vertex="1">
          <mxGeometry x="540" y="40" width="110" height="600" as="geometry" />
        </mxCell>
        <mxCell id="xujpHnGjbQcPWJrS-wD8-24" value="" style="html=1;points=[];perimeter=orthogonalPerimeter;outlineConnect=0;targetShapes=umlLifeline;portConstraint=eastwest;newEdgeStyle={&quot;edgeStyle&quot;:&quot;elbowEdgeStyle&quot;,&quot;elbow&quot;:&quot;vertical&quot;,&quot;curved&quot;:0,&quot;rounded&quot;:0};" parent="xujpHnGjbQcPWJrS-wD8-23" vertex="1">
          <mxGeometry x="50" y="349.09" width="10" height="40.91" as="geometry" />
        </mxCell>
        <mxCell id="xujpHnGjbQcPWJrS-wD8-25" value="Notification APIs" style="shape=umlLifeline;perimeter=lifelinePerimeter;whiteSpace=wrap;html=1;container=1;dropTarget=0;collapsible=0;recursiveResize=0;outlineConnect=0;portConstraint=eastwest;newEdgeStyle={&quot;curved&quot;:0,&quot;rounded&quot;:0};" parent="1" vertex="1">
          <mxGeometry x="660" y="40" width="100" height="600" as="geometry" />
        </mxCell>
        <mxCell id="xujpHnGjbQcPWJrS-wD8-26" value="&lt;p style=&quot;line-height: 120%; font-size: 9px;&quot;&gt;&lt;b&gt;alt: &lt;/b&gt;checkValidityCred() == true&lt;/p&gt;" style="shape=umlFrame;whiteSpace=wrap;html=1;pointerEvents=0;width=130;height=30;verticalAlign=middle;horizontal=1;labelPosition=center;verticalLabelPosition=middle;align=center;" parent="1" vertex="1">
          <mxGeometry x="-230" y="240" width="990" height="400" as="geometry" />
        </mxCell>
        <mxCell id="xujpHnGjbQcPWJrS-wD8-27" value="[then]" style="text;html=1;strokeColor=none;fillColor=none;align=center;verticalAlign=middle;whiteSpace=wrap;rounded=0;fontSize=10;" parent="1" vertex="1">
          <mxGeometry x="-191" y="280" width="35" height="10" as="geometry" />
        </mxCell>
        <mxCell id="xujpHnGjbQcPWJrS-wD8-28" value="[else]" style="text;html=1;strokeColor=none;fillColor=none;align=center;verticalAlign=middle;whiteSpace=wrap;rounded=0;fontSize=10;" parent="1" vertex="1">
          <mxGeometry x="-191" y="580" width="35" height="10" as="geometry" />
        </mxCell>
        <mxCell id="xujpHnGjbQcPWJrS-wD8-29" value="[then]" style="text;html=1;strokeColor=none;fillColor=none;align=center;verticalAlign=middle;whiteSpace=wrap;rounded=0;fontSize=10;" parent="1" vertex="1">
          <mxGeometry x="-170" y="340" width="35" height="10" as="geometry" />
        </mxCell>
        <mxCell id="xujpHnGjbQcPWJrS-wD8-30" value="&lt;p style=&quot;line-height: 120%; font-size: 9px;&quot;&gt;&lt;b&gt;alt: &lt;/b&gt;userDataQueried == NULL&lt;/p&gt;" style="shape=umlFrame;whiteSpace=wrap;html=1;pointerEvents=0;width=110;height=30;verticalAlign=middle;horizontal=1;labelPosition=center;verticalLabelPosition=middle;align=center;" parent="1" vertex="1">
          <mxGeometry x="-210" y="300" width="950" height="260" as="geometry" />
        </mxCell>
        <mxCell id="xujpHnGjbQcPWJrS-wD8-31" value="&lt;font style=&quot;font-size: 9px;&quot;&gt;9 : outcome&lt;/font&gt;" style="html=1;verticalAlign=bottom;endArrow=openThin;dashed=1;endSize=8;edgeStyle=elbowEdgeStyle;elbow=horizontal;curved=0;rounded=0;endFill=0;" parent="1" source="xujpHnGjbQcPWJrS-wD8-35" target="xujpHnGjbQcPWJrS-wD8-14" edge="1">
          <mxGeometry relative="1" as="geometry">
            <mxPoint x="294" y="348.75" as="targetPoint" />
            <Array as="points">
              <mxPoint x="440" y="350" />
            </Array>
            <mxPoint x="449" y="348.75" as="sourcePoint" />
            <mxPoint as="offset" />
          </mxGeometry>
        </mxCell>
        <mxCell id="xujpHnGjbQcPWJrS-wD8-32" value="&lt;font style=&quot;font-size: 9px;&quot;&gt;13 : outcomeMessage&lt;/font&gt;" style="html=1;verticalAlign=bottom;endArrow=openThin;dashed=1;endSize=8;edgeStyle=elbowEdgeStyle;elbow=vertical;curved=0;rounded=0;endFill=0;" parent="1" source="xujpHnGjbQcPWJrS-wD8-14" target="xujpHnGjbQcPWJrS-wD8-3" edge="1">
          <mxGeometry relative="1" as="geometry">
            <mxPoint x="133" y="460" as="targetPoint" />
            <Array as="points">
              <mxPoint x="173" y="460" />
            </Array>
            <mxPoint x="283" y="460" as="sourcePoint" />
          </mxGeometry>
        </mxCell>
        <mxCell id="xujpHnGjbQcPWJrS-wD8-33" value="&lt;font style=&quot;font-size: 9px;&quot;&gt;14 : showMessage(outcomeMessage)&lt;/font&gt;" style="html=1;verticalAlign=bottom;endArrow=openThin;dashed=1;endSize=8;edgeStyle=elbowEdgeStyle;elbow=vertical;curved=0;rounded=0;endFill=0;" parent="1" edge="1">
          <mxGeometry relative="1" as="geometry">
            <mxPoint x="-85" y="480" as="targetPoint" />
            <Array as="points">
              <mxPoint x="120" y="480" />
            </Array>
            <mxPoint x="125" y="480" as="sourcePoint" />
          </mxGeometry>
        </mxCell>
        <mxCell id="xujpHnGjbQcPWJrS-wD8-34" value="[else]" style="text;html=1;strokeColor=none;fillColor=none;align=center;verticalAlign=middle;whiteSpace=wrap;rounded=0;fontSize=10;" parent="1" vertex="1">
          <mxGeometry x="-170" y="510" width="35" height="10" as="geometry" />
        </mxCell>
        <mxCell id="xujpHnGjbQcPWJrS-wD8-35" value="" style="html=1;points=[];perimeter=orthogonalPerimeter;outlineConnect=0;targetShapes=umlLifeline;portConstraint=eastwest;newEdgeStyle={&quot;edgeStyle&quot;:&quot;elbowEdgeStyle&quot;,&quot;elbow&quot;:&quot;vertical&quot;,&quot;curved&quot;:0,&quot;rounded&quot;:0};" parent="1" vertex="1">
          <mxGeometry x="470" y="320" width="10" height="30" as="geometry" />
        </mxCell>
        <mxCell id="xujpHnGjbQcPWJrS-wD8-36" value="&lt;font style=&quot;font-size: 9px;&quot;&gt;8 : insertUser(query)&lt;/font&gt;" style="html=1;verticalAlign=bottom;endArrow=block;edgeStyle=elbowEdgeStyle;elbow=vertical;curved=0;rounded=0;" parent="1" source="xujpHnGjbQcPWJrS-wD8-14" target="xujpHnGjbQcPWJrS-wD8-35" edge="1">
          <mxGeometry relative="1" as="geometry">
            <mxPoint x="299" y="320" as="sourcePoint" />
            <Array as="points">
              <mxPoint x="394" y="320" />
            </Array>
            <mxPoint x="499" y="320.25" as="targetPoint" />
            <mxPoint as="offset" />
          </mxGeometry>
        </mxCell>
        <mxCell id="xujpHnGjbQcPWJrS-wD8-37" value="&lt;font style=&quot;font-size: 9px;&quot;&gt;16 : showMessage(errorAlreadyRegistered)&lt;/font&gt;" style="html=1;verticalAlign=bottom;endArrow=openThin;dashed=1;endSize=8;edgeStyle=elbowEdgeStyle;elbow=horizontal;curved=0;rounded=0;endFill=0;" parent="1" source="xujpHnGjbQcPWJrS-wD8-19" target="xujpHnGjbQcPWJrS-wD8-6" edge="1">
          <mxGeometry relative="1" as="geometry">
            <mxPoint x="-50" y="560" as="targetPoint" />
            <Array as="points">
              <mxPoint x="-50" y="550" />
            </Array>
            <mxPoint x="128" y="790" as="sourcePoint" />
          </mxGeometry>
        </mxCell>
        <mxCell id="xujpHnGjbQcPWJrS-wD8-38" value="" style="endArrow=none;dashed=1;html=1;rounded=0;" parent="1" edge="1">
          <mxGeometry width="50" height="50" relative="1" as="geometry">
            <mxPoint x="-90.5" y="640" as="sourcePoint" />
            <mxPoint x="-90.5" y="630" as="targetPoint" />
          </mxGeometry>
        </mxCell>
        <mxCell id="xujpHnGjbQcPWJrS-wD8-39" value="" style="endArrow=none;dashed=1;html=1;rounded=0;strokeWidth=2;" parent="1" edge="1">
          <mxGeometry width="50" height="50" relative="1" as="geometry">
            <mxPoint x="-230" y="570" as="sourcePoint" />
            <mxPoint x="760" y="571" as="targetPoint" />
          </mxGeometry>
        </mxCell>
        <mxCell id="xujpHnGjbQcPWJrS-wD8-40" value="" style="endArrow=none;dashed=1;html=1;rounded=0;exitX=0.001;exitY=0.409;exitDx=0;exitDy=0;exitPerimeter=0;strokeWidth=2;entryX=1.001;entryY=0.781;entryDx=0;entryDy=0;entryPerimeter=0;" parent="1" target="xujpHnGjbQcPWJrS-wD8-30" edge="1">
          <mxGeometry width="50" height="50" relative="1" as="geometry">
            <mxPoint x="-210" y="500" as="sourcePoint" />
            <mxPoint x="740" y="500" as="targetPoint" />
          </mxGeometry>
        </mxCell>
        <mxCell id="xujpHnGjbQcPWJrS-wD8-41" value="&lt;p style=&quot;line-height: 120%; font-size: 9px;&quot;&gt;&lt;b&gt;loop: &lt;/b&gt;sendNotification&amp;nbsp; &amp;nbsp;&lt;span style=&quot;background-color: initial;&quot;&gt;Outcome == false&lt;/span&gt;&lt;/p&gt;" style="shape=umlFrame;whiteSpace=wrap;html=1;pointerEvents=0;width=100;height=28;verticalAlign=middle;horizontal=1;labelPosition=center;verticalLabelPosition=middle;align=center;" parent="1" vertex="1">
          <mxGeometry x="182" y="360.91" width="538" height="79.09" as="geometry" />
        </mxCell>
        <mxCell id="xujpHnGjbQcPWJrS-wD8-42" value="&lt;font style=&quot;font-size: 9px;&quot;&gt;10 : sendRegistrationNot(userId)&lt;/font&gt;" style="html=1;verticalAlign=bottom;endArrow=block;edgeStyle=elbowEdgeStyle;elbow=vertical;curved=0;rounded=0;" parent="1" source="xujpHnGjbQcPWJrS-wD8-14" target="xujpHnGjbQcPWJrS-wD8-24" edge="1">
          <mxGeometry relative="1" as="geometry">
            <mxPoint x="296" y="389.09000000000003" as="sourcePoint" />
            <Array as="points">
              <mxPoint x="560" y="389" />
            </Array>
            <mxPoint x="636" y="389.09000000000003" as="targetPoint" />
            <mxPoint as="offset" />
          </mxGeometry>
        </mxCell>
        <mxCell id="xujpHnGjbQcPWJrS-wD8-43" value="&lt;font style=&quot;font-size: 9px;&quot;&gt;11 : send notification&lt;/font&gt;" style="html=1;verticalAlign=bottom;endArrow=open;edgeStyle=elbowEdgeStyle;elbow=horizontal;curved=0;rounded=0;endFill=0;endSize=8;" parent="1" source="xujpHnGjbQcPWJrS-wD8-24" target="xujpHnGjbQcPWJrS-wD8-25" edge="1">
          <mxGeometry relative="1" as="geometry">
            <mxPoint x="832" y="469.09000000000003" as="sourcePoint" />
            <Array as="points">
              <mxPoint x="660" y="400" />
            </Array>
            <mxPoint x="951.5" y="479.0899999999998" as="targetPoint" />
          </mxGeometry>
        </mxCell>
        <mxCell id="xujpHnGjbQcPWJrS-wD8-44" value="&lt;font style=&quot;font-size: 9px;&quot;&gt;12 : sendNotificationOutcome&lt;/font&gt;" style="html=1;verticalAlign=bottom;endArrow=openThin;dashed=1;endSize=8;edgeStyle=elbowEdgeStyle;elbow=horizontal;curved=0;rounded=0;endFill=0;" parent="1" source="xujpHnGjbQcPWJrS-wD8-24" target="xujpHnGjbQcPWJrS-wD8-14" edge="1">
          <mxGeometry relative="1" as="geometry">
            <mxPoint x="297" y="519.09" as="targetPoint" />
            <Array as="points">
              <mxPoint x="330" y="430" />
            </Array>
            <mxPoint x="636" y="509.09000000000003" as="sourcePoint" />
          </mxGeometry>
        </mxCell>
        <mxCell id="xujpHnGjbQcPWJrS-wD8-45" value="&lt;font style=&quot;font-size: 9px;&quot;&gt;6 : getUser(query)&lt;/font&gt;" style="html=1;verticalAlign=bottom;endArrow=block;edgeStyle=elbowEdgeStyle;elbow=vertical;curved=0;rounded=0;" parent="1" source="xujpHnGjbQcPWJrS-wD8-14" target="xujpHnGjbQcPWJrS-wD8-12" edge="1">
          <mxGeometry relative="1" as="geometry">
            <mxPoint x="276" y="260" as="sourcePoint" />
            <Array as="points">
              <mxPoint x="376" y="260" />
            </Array>
            <mxPoint x="421" y="260" as="targetPoint" />
            <mxPoint as="offset" />
          </mxGeometry>
        </mxCell>
        <mxCell id="xujpHnGjbQcPWJrS-wD8-46" value="&lt;font style=&quot;font-size: 9px;&quot;&gt;7 : userDataQueried&lt;/font&gt;" style="html=1;verticalAlign=bottom;endArrow=openThin;dashed=1;endSize=8;edgeStyle=elbowEdgeStyle;elbow=horizontal;curved=0;rounded=0;endFill=0;" parent="1" source="xujpHnGjbQcPWJrS-wD8-12" target="xujpHnGjbQcPWJrS-wD8-14" edge="1">
          <mxGeometry relative="1" as="geometry">
            <mxPoint x="276" y="290" as="targetPoint" />
            <Array as="points">
              <mxPoint x="331" y="290" />
            </Array>
            <mxPoint x="451" y="290" as="sourcePoint" />
          </mxGeometry>
        </mxCell>
        <mxCell id="xujpHnGjbQcPWJrS-wD8-47" value="&lt;font style=&quot;font-size: 9px;&quot;&gt;18 : showMessage(invalidCredentials)&lt;/font&gt;" style="html=1;verticalAlign=bottom;endArrow=openThin;dashed=1;endSize=8;edgeStyle=elbowEdgeStyle;elbow=vertical;curved=0;rounded=0;endFill=0;" parent="1" source="xujpHnGjbQcPWJrS-wD8-21" target="xujpHnGjbQcPWJrS-wD8-6" edge="1">
          <mxGeometry relative="1" as="geometry">
            <mxPoint x="-85" y="630" as="targetPoint" />
            <Array as="points">
              <mxPoint x="-50" y="620" />
            </Array>
            <mxPoint x="105" y="648.1800000000001" as="sourcePoint" />
          </mxGeometry>
        </mxCell>
      </root>
    </mxGraphModel>
  </diagram>
</mxfile>
